<?xml version="1.0" encoding="UTF-8" standalone="no"?>
<!-- Created with Inkscape (http://www.inkscape.org/) -->
<svg xmlns:dc="http://purl.org/dc/elements/1.1/" xmlns:cc="http://creativecommons.org/ns#" xmlns:rdf="http://www.w3.org/1999/02/22-rdf-syntax-ns#" xmlns:svg="http://www.w3.org/2000/svg" xmlns="http://www.w3.org/2000/svg" version="1.1" width="300.00012" height="86.598" id="svg2" xml:space="preserve"><metadata id="metadata8"><rdf:RDF><cc:Work rdf:about=""><dc:format>image/svg+xml</dc:format><dc:type rdf:resource="http://purl.org/dc/dcmitype/StillImage"/><dc:title/></cc:Work></rdf:RDF></metadata><defs id="defs6"><clipPath id="clipPath16"><path d="M 0,0 612,0 612,792 0,792 0,0 z" id="path18"/></clipPath><clipPath id="clipPath34"><path d="m 36.79,712.471 182.7,0 0,43.53 -182.7,0 0,-43.53 z" id="path36"/></clipPath><clipPath id="clipPath44"><path d="m 36.79,712.417 182.7,0 0,43.584 -182.7,0 0,-43.584 z" id="path46"/></clipPath><clipPath id="clipPath104"><path d="m 295.143,645.687 280.647,0 0,110.314 -280.647,0 0,-110.314 z" id="path106"/></clipPath><clipPath id="clipPath308"><path d="M 0,0 612,0 612,792 0,792 0,0 z" id="path310"/></clipPath><clipPath id="clipPath338"><path d="M 0,0 612,0 612,792 0,792 0,0 z" id="path340"/></clipPath><clipPath id="clipPath588"><path d="M 0,0 612,0 612,792 0,792 0,0 z" id="path590"/></clipPath><clipPath id="clipPath674"><path d="m 339.3,663 131.5,0 0,37.904 -131.5,0 0,-37.904 z" id="path676"/></clipPath></defs><g transform="matrix(1.25,0,0,-1.25,-356.2181,895.7297)" id="g10"><g transform="matrix(1.8300314,0,0,1.8300314,-336.14156,-566.03538)" id="g670"><g clip-path="url(#clipPath674)" id="g672"><g transform="translate(358.3301,681.9383)" id="g678"><path d="m 0,0 -5.339,5.339 -0.195,0.203 c -3.062,3.062 -8.035,3.07 -11.097,0.007 -3.063,-3.062 -3.063,-8.027 0,-11.09 3.062,-3.062 8.028,-3.062 11.091,0.001 L 0,0 z" id="path680" style="fill:#ffffff;fill-opacity:1;fill-rule:nonzero;stroke:none"/></g><g transform="translate(358.331,681.9437)" id="g682"><path d="m 0,0 0,-7.55 0.006,-0.282 c 0,-4.331 -3.511,-7.852 -7.842,-7.852 -4.331,0 -7.842,3.511 -7.842,7.842 0,4.331 3.512,7.842 7.843,7.842 L 0,0 z" id="path684" style="fill:#ffffff;fill-opacity:1;fill-rule:nonzero;stroke:none"/></g><g transform="translate(358.331,681.9437)" id="g686"><path d="m 0,0 0,-7.55 0.006,-0.282 c 0,-4.331 -3.511,-7.852 -7.842,-7.852 -4.331,0 -7.842,3.511 -7.842,7.842 0,4.331 3.512,7.842 7.843,7.842 L 0,0 z" id="path688" style="fill:#ffffff;fill-opacity:1;fill-rule:nonzero;stroke:none"/></g><g transform="translate(358.331,681.9437)" id="g690"><path d="m 0,0 0,-7.55 0.006,-0.282 c 0,-4.331 -3.511,-7.852 -7.842,-7.852 -4.331,0 -7.842,3.511 -7.842,7.842 0,0.476 0.042,0.942 0.123,1.394 3.058,-2.123 7.289,-1.823 10.014,0.902 l 5.54,5.541 L 0,0 z" id="path692" style="fill:#ffffff;fill-opacity:1;fill-rule:nonzero;stroke:none"/></g><g transform="translate(350.495,680.948)" id="g694"><path d="m 0,0 c -3.781,0 -6.846,-3.065 -6.846,-6.846 0,-3.782 3.065,-6.847 6.846,-6.847 3.781,0 6.846,3.065 6.846,6.847 L 6.84,-6.555 6.84,0 0.016,0 0,0 z" id="path696" style="fill:#8bdc01;fill-opacity:1;fill-rule:nonzero;stroke:none"/></g><g transform="translate(358.3313,681.9446)" id="g698"><path d="m 0,0 5.339,-5.339 0.203,-0.195 c 3.063,-3.062 3.07,-8.035 0.007,-11.097 -3.062,-3.063 -8.027,-3.063 -11.09,0 -3.062,3.062 -3.062,8.028 0.001,11.091 L 0,0 z" id="path700" style="fill:#ffffff;fill-opacity:1;fill-rule:nonzero;stroke:none"/></g><g transform="translate(353.4945,675.6996)" id="g702"><path d="m 0,0 c -2.674,-2.674 -2.674,-7.009 0,-9.682 2.674,-2.674 7.009,-2.674 9.682,0 2.674,2.673 2.674,7.008 0,9.682 L 9.472,0.202 4.837,4.837 0.012,0.011 0,0 z" id="path704" style="fill:#8bdc01;fill-opacity:1;fill-rule:nonzero;stroke:none"/></g><g transform="translate(358.331,681.9454)" id="g706"><path d="m 0,0 7.55,0 0.282,0.006 c 4.331,0 7.852,-3.511 7.852,-7.842 0,-4.331 -3.511,-7.842 -7.842,-7.842 C 3.511,-15.678 0,-12.166 0,-7.835 L 0,0 z" id="path708" style="fill:#ffffff;fill-opacity:1;fill-rule:nonzero;stroke:none"/></g><g transform="translate(359.3267,674.1094)" id="g710"><path d="m 0,0 c 0,-3.781 3.065,-6.846 6.846,-6.846 3.782,0 6.847,3.065 6.847,6.846 0,3.781 -3.065,6.846 -6.847,6.846 L 6.554,6.84 0,6.84 0,0.016 0,0 z" id="path712" style="fill:#8bdc01;fill-opacity:1;fill-rule:nonzero;stroke:none"/></g><g transform="translate(358.3302,681.9457)" id="g714"><path d="m 0,0 5.339,5.339 0.195,0.203 c 3.062,3.062 8.035,3.07 11.097,0.007 3.063,-3.062 3.063,-8.027 0,-11.09 C 13.569,-8.603 8.603,-8.603 5.54,-5.54 L 0,0 z" id="path716" style="fill:#ffffff;fill-opacity:1;fill-rule:nonzero;stroke:none"/></g><g transform="translate(364.5751,677.1089)" id="g718"><path d="m 0,0 c 2.674,-2.674 7.009,-2.674 9.682,0 2.674,2.674 2.674,7.009 0,9.682 -2.673,2.674 -7.008,2.674 -9.682,0 L -0.202,9.471 -4.837,4.837 -0.011,0.011 0,0 z" id="path720" style="fill:#8bdc01;fill-opacity:1;fill-rule:nonzero;stroke:none"/></g><g transform="translate(358.3293,681.9454)" id="g722"><path d="m 0,0 0,7.55 -0.006,0.282 c 0,4.331 3.511,7.852 7.842,7.852 4.331,0 7.842,-3.511 7.842,-7.842 C 15.678,3.511 12.166,0 7.835,0 L 0,0 z" id="path724" style="fill:#ffffff;fill-opacity:1;fill-rule:nonzero;stroke:none"/></g><g transform="translate(366.1653,682.941)" id="g726"><path d="m 0,0 c 3.781,0 6.846,3.065 6.846,6.846 0,3.782 -3.065,6.847 -6.846,6.847 -3.781,0 -6.846,-3.065 -6.846,-6.847 L -6.84,6.555 -6.84,0 -0.016,0 0,0 z" id="path728" style="fill:#fba100;fill-opacity:1;fill-rule:nonzero;stroke:none"/></g><g transform="translate(358.329,681.9445)" id="g730"><path d="m 0,0 -5.339,5.339 -0.203,0.195 c -3.063,3.062 -3.07,8.035 -0.007,11.097 3.062,3.063 8.027,3.063 11.09,0 C 8.603,13.569 8.603,8.603 5.54,5.54 L 0,0 z" id="path732" style="fill:#ffffff;fill-opacity:1;fill-rule:nonzero;stroke:none"/></g><g transform="translate(363.1658,688.1895)" id="g734"><path d="m 0,0 c 2.674,2.674 2.674,7.009 0,9.682 -2.674,2.674 -7.009,2.674 -9.682,0 -2.674,-2.673 -2.674,-7.008 0,-9.682 l 0.211,-0.202 4.634,-4.635 4.825,4.826 L 0,0 z" id="path736" style="fill:#33aaff;fill-opacity:1;fill-rule:nonzero;stroke:none"/></g><g transform="translate(358.3293,681.9437)" id="g738"><path d="m 0,0 -7.55,0 -0.282,-0.006 c -4.331,0 -7.852,3.511 -7.852,7.842 0,4.331 3.511,7.842 7.842,7.842 C -3.511,15.678 0,12.166 0,7.835 L 0,0 z" id="path740" style="fill:#ffffff;fill-opacity:1;fill-rule:nonzero;stroke:none"/></g><g transform="translate(357.3336,689.7797)" id="g742"><path d="m 0,0 c 0,3.781 -3.065,6.846 -6.846,6.846 -3.782,0 -6.847,-3.065 -6.847,-6.846 0,-3.781 3.065,-6.846 6.847,-6.846 L -6.554,-6.84 0,-6.84 0,-0.016 0,0 z" id="path744" style="fill:#33aaff;fill-opacity:1;fill-rule:nonzero;stroke:none"/></g><g transform="translate(358.3302,681.9434)" id="g746"><path d="m 0,0 -18.928,-0.007 c -10e-4,2.008 0.765,4.016 2.297,5.548 3.062,3.062 8.028,3.062 11.091,-0.001 L 0,0 z" id="path748" style="fill:#ffffff;fill-opacity:1;fill-rule:nonzero;stroke:none"/></g><g transform="translate(352.0852,686.7802)" id="g750"><path d="m 0,0 4.837,-4.837 -6.427,0 c -3.481,0 -6.433,-2.268 -7.457,-5.407 -0.22,0.172 -0.433,0.359 -0.635,0.562 -2.674,2.673 -2.674,7.008 0,9.682 2.673,2.674 7.008,2.674 9.682,0" id="path752" style="fill:#33aaff;fill-opacity:1;fill-rule:nonzero;stroke:none"/></g><g transform="translate(352.1013,686.7802)" id="g754"><path d="m 0,0 3.829,-3.829 -5.147,0 -0.291,-0.006 c -3.135,0 -5.777,2.106 -6.59,4.981 2.608,1.462 5.969,1.084 8.188,-1.134 L 0,0 z" id="path756" style="fill:#017dff;fill-opacity:1;fill-rule:nonzero;stroke:none"/></g><g transform="translate(357.3309,689.7811)" id="g758"><path d="m 0,0 0,-5.415 -3.639,3.639 -0.211,0.202 C -6.066,0.642 -6.445,4 -4.987,6.607 -2.109,5.797 0,3.153 0,0.016 L 0,0 z" id="path760" style="fill:#017dff;fill-opacity:1;fill-rule:nonzero;stroke:none"/></g><g transform="translate(363.1867,688.1945)" id="g762"><path d="m 0,0 -3.829,-3.829 0,5.147 -0.006,0.291 c 0,3.135 2.106,5.777 4.98,6.59 C 2.608,5.591 2.23,2.23 0.012,0.011 L 0,0 z" id="path764" style="fill:#017dff;fill-opacity:1;fill-rule:nonzero;stroke:none"/></g><g transform="translate(366.161,682.9554)" id="g766"><path d="m 0,0 -5.415,0 3.639,3.639 0.202,0.211 C 0.642,6.066 4,6.445 6.607,4.987 5.797,2.109 3.153,0 0.016,0 L 0,0 z" id="path768" style="fill:#fde012;fill-opacity:1;fill-rule:nonzero;stroke:none"/></g><g transform="translate(364.5618,677.1361)" id="g770"><path d="m 0,0 -3.829,3.829 5.146,0 0.292,0.006 c 3.135,0 5.777,-2.106 6.59,-4.981 C 5.591,-2.608 2.23,-2.23 0.011,-0.012 L 0,0 z" id="path772" style="fill:#47b41b;fill-opacity:1;fill-rule:nonzero;stroke:none"/></g><g transform="translate(359.3424,674.1411)" id="g774"><path d="M 0,0 0,5.415 3.639,1.776 3.85,1.574 C 6.066,-0.643 6.445,-4 4.987,-6.607 2.11,-5.797 0,-3.153 0,-0.016 L 0,0 z" id="path776" style="fill:#47b41b;fill-opacity:1;fill-rule:nonzero;stroke:none"/></g><g transform="translate(353.5229,675.6953)" id="g778"><path d="m 0,0 3.829,3.829 0,-5.146 0.006,-0.292 c 0,-3.135 -2.106,-5.777 -4.981,-6.589 -1.462,2.607 -1.084,5.968 1.135,8.187 L 0,0 z" id="path780" style="fill:#47b41b;fill-opacity:1;fill-rule:nonzero;stroke:none"/></g><g transform="translate(350.5186,680.9371)" id="g782"><path d="M 0,0 5.415,0 1.776,-3.639 1.574,-3.85 C -0.642,-6.066 -4,-6.446 -6.607,-4.987 -5.797,-2.11 -3.153,0 -0.016,0 L 0,0 z" id="path784" style="fill:#47b41b;fill-opacity:1;fill-rule:nonzero;stroke:none"/></g><g transform="translate(378.6456,671.4905)" id="g786"><path d="m 0,0 2.086,0 2.457,6.344 9.287,0 2.486,-6.344 2.086,0 -8.001,20.402 -2.172,0 L 0,0 z m 9.23,18.459 3.943,-10.458 -8.03,0 4.087,10.458 z" id="path788" style="fill:#7b7678;fill-opacity:1;fill-rule:evenodd;stroke:none"/></g><path d="m 397.747,671.49 1.8,0 0,20.402 -1.8,0 0,-20.402 z" id="path790" style="fill:#7b7678;fill-opacity:1;fill-rule:nonzero;stroke:none"/><g transform="translate(407.2556,686.2349)" id="g792"><path d="m 0,0 -2.915,0 0,1.286 c 0,0.4 0.01,0.771 0.029,1.114 0.019,0.343 0.09,0.643 0.214,0.9 0.124,0.257 0.319,0.462 0.586,0.615 0.267,0.152 0.648,0.228 1.143,0.228 0.21,0 0.419,-0.014 0.629,-0.043 C -0.105,4.072 0.124,4.038 0.371,4 l 0,1.543 C 0.086,5.582 -0.171,5.61 -0.4,5.629 -0.629,5.648 -0.876,5.658 -1.143,5.658 -1.867,5.658 -2.462,5.553 -2.929,5.343 -3.396,5.134 -3.762,4.839 -4.029,4.458 -4.296,4.077 -4.477,3.619 -4.572,3.086 -4.667,2.553 -4.715,1.972 -4.715,1.343 l 0,-1.343 -2.514,0 0,-1.514 2.514,0 0,-13.23 1.8,0 0,13.23 2.915,0 L 0,0 z" id="path794" style="fill:#7b7678;fill-opacity:1;fill-rule:nonzero;stroke:none"/></g><g transform="translate(407.8173,671.4905)" id="g796"><path d="m 0,0 1.8,0 0,7.738 c 0,0.751 0.134,1.454 0.4,2.111 0.267,0.656 0.643,1.219 1.129,1.688 0.486,0.469 1.062,0.83 1.729,1.084 0.666,0.254 1.409,0.361 2.228,0.323 l 0,1.8 C 5.953,14.802 4.805,14.54 3.843,13.959 2.881,13.378 2.172,12.487 1.714,11.287 l -0.057,0 0,3.457 L 0,14.744 0,0 z" id="path798" style="fill:#7b7678;fill-opacity:1;fill-rule:nonzero;stroke:none"/></g><g transform="translate(427.3077,678.3769)" id="g800"><path d="m 0,0 c 0.038,0.975 -0.057,1.937 -0.286,2.886 -0.228,0.948 -0.605,1.788 -1.128,2.52 -0.524,0.732 -1.205,1.323 -2.044,1.775 -0.838,0.451 -1.847,0.677 -3.028,0.677 -1.181,0 -2.191,-0.212 -3.029,-0.635 -0.838,-0.423 -1.524,-0.981 -2.058,-1.674 -0.533,-0.693 -0.928,-1.481 -1.185,-2.363 -0.258,-0.882 -0.386,-1.782 -0.386,-2.7 0,-0.99 0.128,-1.931 0.386,-2.822 0.257,-0.891 0.652,-1.674 1.185,-2.35 0.534,-0.675 1.22,-1.21 2.058,-1.606 0.838,-0.396 1.848,-0.594 3.029,-0.594 1.866,0 3.309,0.462 4.329,1.385 1.019,0.924 1.719,2.225 2.1,3.901 l -1.8,0 c -0.286,-1.124 -0.8,-2.034 -1.543,-2.729 -0.743,-0.695 -1.772,-1.043 -3.086,-1.043 -0.858,0 -1.596,0.168 -2.215,0.503 -0.619,0.335 -1.119,0.758 -1.5,1.27 -0.381,0.512 -0.667,1.085 -0.857,1.72 -0.191,0.635 -0.286,1.262 -0.286,1.879 L 0,0 z m -11.344,1.514 c 0.076,0.613 0.233,1.212 0.471,1.798 0.239,0.586 0.558,1.103 0.958,1.549 0.4,0.446 0.886,0.805 1.457,1.076 0.571,0.271 1.229,0.407 1.972,0.407 0.723,0 1.371,-0.136 1.943,-0.407 0.571,-0.271 1.057,-0.63 1.457,-1.076 0.4,-0.446 0.71,-0.958 0.929,-1.536 0.219,-0.577 0.338,-1.181 0.357,-1.811 l -9.544,0 z" id="path802" style="fill:#7b7678;fill-opacity:1;fill-rule:evenodd;stroke:none"/></g><g transform="translate(439.2412,681.9201)" id="g804"><path d="m 0,0 c -0.038,0.8 -0.2,1.495 -0.486,2.086 -0.286,0.59 -0.671,1.086 -1.157,1.486 -0.486,0.4 -1.048,0.695 -1.686,0.886 -0.638,0.19 -1.329,0.285 -2.072,0.285 -0.647,0 -1.3,-0.076 -1.957,-0.228 C -8.015,4.362 -8.61,4.124 -9.144,3.8 c -0.533,-0.323 -0.967,-0.752 -1.3,-1.285 -0.333,-0.534 -0.5,-1.172 -0.5,-1.915 0,-0.629 0.105,-1.157 0.314,-1.586 0.21,-0.428 0.5,-0.79 0.872,-1.086 0.371,-0.295 0.805,-0.543 1.3,-0.743 0.495,-0.2 1.038,-0.376 1.629,-0.528 l 2.314,-0.515 c 0.4,-0.095 0.795,-0.209 1.186,-0.342 0.391,-0.134 0.738,-0.3 1.043,-0.5 0.305,-0.201 0.548,-0.453 0.729,-0.758 0.181,-0.305 0.271,-0.666 0.271,-1.086 0,-0.514 -0.128,-0.947 -0.386,-1.3 -0.257,-0.352 -0.585,-0.643 -0.985,-0.871 -0.4,-0.229 -0.839,-0.391 -1.315,-0.486 -0.476,-0.095 -0.924,-0.143 -1.343,-0.143 -1.2,0 -2.205,0.31 -3.014,0.929 -0.81,0.619 -1.253,1.538 -1.329,2.757 l -1.8,0 c 0.152,-1.809 0.766,-3.129 1.843,-3.957 1.076,-0.829 2.481,-1.243 4.214,-1.243 0.686,0 1.381,0.081 2.086,0.243 0.705,0.162 1.339,0.419 1.901,0.771 0.561,0.353 1.023,0.81 1.385,1.372 0.362,0.562 0.543,1.243 0.543,2.043 0,0.647 -0.124,1.209 -0.371,1.686 -0.248,0.476 -0.567,0.876 -0.957,1.2 -0.391,0.324 -0.839,0.586 -1.343,0.786 -0.505,0.2 -1.015,0.338 -1.529,0.414 l -2.4,0.543 c -0.305,0.076 -0.639,0.176 -1.001,0.3 -0.361,0.124 -0.695,0.281 -1,0.471 -0.304,0.191 -0.557,0.424 -0.757,0.7 -0.2,0.277 -0.3,0.615 -0.3,1.015 0,0.476 0.105,0.876 0.315,1.2 0.209,0.324 0.485,0.586 0.828,0.786 0.343,0.2 0.719,0.343 1.129,0.428 0.409,0.086 0.814,0.129 1.214,0.129 0.515,0 1,-0.062 1.458,-0.186 C -3.743,2.919 -3.338,2.724 -2.986,2.457 -2.634,2.191 -2.353,1.853 -2.143,1.443 -1.934,1.033 -1.819,0.552 -1.8,0 L 0,0 z" id="path806" style="fill:#7b7678;fill-opacity:1;fill-rule:nonzero;stroke:none"/></g><g transform="translate(452.8244,681.1772)" id="g808"><path d="m 0,0 c -0.21,1.695 -0.862,2.962 -1.957,3.8 -1.096,0.839 -2.434,1.258 -4.015,1.258 -1.124,0 -2.119,-0.198 -2.986,-0.594 -0.867,-0.396 -1.596,-0.927 -2.186,-1.594 -0.591,-0.666 -1.038,-1.449 -1.343,-2.349 -0.305,-0.9 -0.457,-1.845 -0.457,-2.836 0,-1.008 0.152,-1.957 0.457,-2.848 0.305,-0.892 0.752,-1.67 1.343,-2.336 0.59,-0.667 1.319,-1.198 2.186,-1.594 0.867,-0.396 1.862,-0.594 2.986,-0.594 1.657,0 3.024,0.505 4.1,1.515 1.077,1.009 1.739,2.41 1.986,4.2 l -1.8,0 c -0.057,-0.609 -0.209,-1.171 -0.457,-1.686 -0.248,-0.514 -0.562,-0.957 -0.943,-1.328 -0.381,-0.372 -0.819,-0.662 -1.314,-0.872 -0.496,-0.21 -1.02,-0.314 -1.572,-0.314 -0.857,0 -1.61,0.168 -2.257,0.506 -0.648,0.337 -1.186,0.781 -1.615,1.331 -0.428,0.55 -0.752,1.176 -0.971,1.877 -0.22,0.701 -0.329,1.416 -0.329,2.143 0,0.728 0.109,1.443 0.329,2.144 0.219,0.701 0.543,1.327 0.971,1.877 0.429,0.55 0.967,0.994 1.615,1.331 0.647,0.338 1.4,0.506 2.257,0.506 1.181,0 2.11,-0.314 2.786,-0.943 C -2.51,1.972 -2.048,1.105 -1.8,0 L 0,0 z" id="path810" style="fill:#7b7678;fill-opacity:1;fill-rule:nonzero;stroke:none"/></g><g transform="translate(460.5575,686.2349)" id="g812"><path d="m 0,0 c -1.124,0 -2.119,-0.198 -2.986,-0.594 -0.867,-0.396 -1.596,-0.927 -2.186,-1.593 -0.591,-0.666 -1.038,-1.45 -1.343,-2.35 -0.305,-0.9 -0.457,-1.845 -0.457,-2.835 0,-1.008 0.152,-1.958 0.457,-2.849 0.305,-0.891 0.752,-1.67 1.343,-2.336 0.59,-0.666 1.319,-1.197 2.186,-1.593 0.867,-0.396 1.862,-0.594 2.986,-0.594 1.124,0 2.119,0.198 2.986,0.594 0.867,0.396 1.595,0.927 2.186,1.593 0.59,0.666 1.038,1.445 1.343,2.336 0.305,0.891 0.457,1.841 0.457,2.849 0,0.99 -0.152,1.935 -0.457,2.835 -0.305,0.9 -0.753,1.684 -1.343,2.35 C 4.581,-1.521 3.853,-0.99 2.986,-0.594 2.119,-0.198 1.124,0 0,0 m 0,-1.514 c 0.857,0 1.61,-0.169 2.257,-0.506 C 2.905,-2.358 3.443,-2.801 3.872,-3.352 4.3,-3.902 4.624,-4.528 4.843,-5.229 5.062,-5.93 5.172,-6.644 5.172,-7.372 5.172,-8.1 5.062,-8.814 4.843,-9.516 4.624,-10.217 4.3,-10.842 3.872,-11.393 3.443,-11.943 2.905,-12.387 2.257,-12.724 1.61,-13.061 0.857,-13.23 0,-13.23 c -0.857,0 -1.61,0.169 -2.257,0.506 -0.648,0.337 -1.186,0.781 -1.615,1.331 -0.428,0.551 -0.752,1.176 -0.971,1.877 -0.22,0.702 -0.329,1.416 -0.329,2.144 0,0.728 0.109,1.442 0.329,2.143 0.219,0.701 0.543,1.327 0.971,1.877 0.429,0.551 0.967,0.994 1.615,1.332 0.647,0.337 1.4,0.506 2.257,0.506" id="path814" style="fill:#7b7678;fill-opacity:1;fill-rule:evenodd;stroke:none"/></g><g transform="translate(466.6847,686.1206)" id="g816"><path d="m 0,0 0.726,0 0,-1.913 0.198,0 0,1.913 0.726,0 0,0.169 L 0,0.169 0,0 z" id="path818" style="fill:#7b7678;fill-opacity:1;fill-rule:nonzero;stroke:none"/></g><g transform="translate(468.5262,684.2078)" id="g820"><path d="m 0,0 0.198,0 0,1.799 0.006,0 L 0.918,0 l 0.187,0 0.711,1.799 0.006,0 0,-1.799 0.199,0 0,2.082 -0.292,0 L 1.012,0.257 0.292,2.082 0,2.082 0,0 z" id="path822" style="fill:#7b7678;fill-opacity:1;fill-rule:nonzero;stroke:none"/></g></g></g></g></svg>